<?xml version="1.0" encoding="UTF-8"?>
<svg width="100px" height="100px" viewBox="0 0 100 100" version="1.1" xmlns="http://www.w3.org/2000/svg" xmlns:xlink="http://www.w3.org/1999/xlink">
    <!-- Generator: Sketch 53.2 (72643) - https://sketchapp.com -->
    <title>bg_upload</title>
    <desc>Created with Sketch.</desc>
    <g id="bg_upload" stroke="none" stroke-width="1" fill="none" fill-rule="evenodd" opacity="0.5">
        <path d="M48.0309581,54.792261 L33.9658785,68.8573406 C33.1898958,69.6333233 31.9317792,69.6333233 31.1557964,68.8573406 C30.3798137,68.0813578 30.3798137,66.8232412 31.1557964,66.0472584 L48.6129451,48.5901097 C49.3889279,47.8141269 50.6470445,47.8141269 51.4230273,48.5901097 L68.880176,66.0472584 C69.6561587,66.8232412 69.6561587,68.0813578 68.880176,68.8573406 C68.1041932,69.6333233 66.8460766,69.6333233 66.0700938,68.8573406 L52.0050143,54.792261 L52.0050143,89.2737354 C52.0050143,90.3711407 51.1153915,91.2607635 50.0179862,91.2607635 C48.9205809,91.2607635 48.0309581,90.3711407 48.0309581,89.2737354 L48.0309581,54.792261 Z M76.2050212,34.9152615 C87.0863402,34.9224457 96.5781193,42.3059785 99.2621241,52.8510852 C101.946129,63.3961918 97.1392696,74.4191011 87.585467,79.627557 C86.6219449,80.1528413 85.4150288,79.7975793 84.8897445,78.8340572 C84.3644602,77.8705351 84.7197222,76.663619 85.6832443,76.1383347 C93.6423472,71.7992628 97.6468562,62.6162732 95.4108596,53.8313325 C93.1748629,45.0463917 85.2674307,38.8953019 76.2037093,38.8893174 L70.7047074,38.8893174 C69.7988608,38.8893174 69.0076734,38.2766671 68.7809335,37.3996568 C65.3691792,24.2032912 54.1794646,14.4731225 40.6371876,12.9268794 C27.0949107,11.3806364 13.9998319,18.3379926 7.70117606,30.4256337 C1.40252027,42.5132748 3.2024856,57.232175 12.2283484,67.44579 C12.9550423,68.2681127 12.8775198,69.5238386 12.0551972,70.2505325 C11.2328746,70.9772263 9.97714859,70.8997039 9.25045473,70.0773813 C-0.864757046,58.6310651 -2.88196369,42.1357122 4.17688914,28.5891902 C11.235742,15.0426682 25.9112914,7.24561499 41.0880121,8.97847714 C55.7505167,10.6526266 67.9521561,20.8874582 72.2100532,34.9152612 L76.2050212,34.9152615 Z" id="Combined-Shape" fill="#F0FAFF" fill-rule="nonzero"></path>
    </g>
</svg>