<?xml version="1.0" encoding="UTF-8"?>
<svg width="32px" height="32px" viewBox="0 0 32 32" version="1.1" xmlns="http://www.w3.org/2000/svg" xmlns:xlink="http://www.w3.org/1999/xlink">
    <!-- Generator: Sketch 53.2 (72643) - https://sketchapp.com -->
    <title>ic_copy</title>
    <desc>Created with Sketch.</desc>
    <g id="ic_copy" stroke="none" stroke-width="1" fill="none" fill-rule="evenodd">
        <path d="M13.3877551,12.5947522 C12.9497917,12.5947522 12.5947522,12.9497917 12.5947522,13.3877551 L12.5947522,29.0612245 C12.5947522,29.4991879 12.9497917,29.8542274 13.3877551,29.8542274 L29.0612245,29.8542274 C29.4991879,29.8542274 29.8542274,29.4991879 29.8542274,29.0612245 L29.8542274,13.3877551 C29.8542274,12.9497917 29.4991879,12.5947522 29.0612245,12.5947522 L13.3877551,12.5947522 Z M13.3877551,10.4489796 L29.0612245,10.4489796 C30.6842654,10.4489796 32,11.7647142 32,13.3877551 L32,29.0612245 C32,30.6842654 30.6842654,32 29.0612245,32 L13.3877551,32 C11.7647142,32 10.4489796,30.6842654 10.4489796,29.0612245 L10.4489796,13.3877551 C10.4489796,11.7647142 11.7647142,10.4489796 13.3877551,10.4489796 Z M5.55102041,19.4052478 C6.14355915,19.4052478 6.62390671,19.8855954 6.62390671,20.4781341 C6.62390671,21.0706729 6.14355915,21.5510204 5.55102041,21.5510204 L4.05830904,21.5510204 C1.81696685,21.5510204 -6.75015599e-14,19.7340536 -6.75015599e-14,17.4927114 L-6.75015599e-14,4.05830904 C-6.79158705e-14,1.81696685 1.81696685,0 4.05830904,0 L17.4927114,0 C19.7340536,0 21.5510204,1.81696685 21.5510204,4.05830904 L21.5510204,5.55102041 C21.5510204,6.14355915 21.0706729,6.62390671 20.4781341,6.62390671 C19.8855954,6.62390671 19.4052478,6.14355915 19.4052478,5.55102041 L19.4052478,4.05830904 C19.4052478,3.00204433 18.5489761,2.14577259 17.4927114,2.14577259 L4.05830904,2.14577259 C3.00204433,2.14577259 2.14577259,3.00204433 2.14577259,4.05830904 L2.14577259,17.4927114 C2.14577259,18.5489761 3.00204433,19.4052478 4.05830904,19.4052478 L5.55102041,19.4052478 Z" id="Combined-Shape" fill="#F0FAFF" fill-rule="nonzero"></path>
    </g>
</svg>