<?xml version="1.0" encoding="UTF-8"?>
<svg width="32px" height="32px" viewBox="0 0 32 32" version="1.1" xmlns="http://www.w3.org/2000/svg" xmlns:xlink="http://www.w3.org/1999/xlink">
    <!-- Generator: Sketch 53.2 (72643) - https://sketchapp.com -->
    <title>ic/eye-off</title>
    <desc>Created with Sketch.</desc>
    <g id="ic/eye-off" stroke="none" stroke-width="1" fill="none" fill-rule="evenodd">
        <path d="M21.5641106,23.6211485 L18.6907431,20.747781 C17.4669567,21.4820278 15.9818429,21.7150773 14.5595497,21.3518485 C12.6386562,20.861286 11.138714,19.3613438 10.6481515,17.4404503 C10.2849228,16.0181571 10.5179722,14.5330433 11.252219,13.3092569 L8.04180611,10.098844 C6.08102242,11.7755077 4.41612106,13.7717614 3.11824408,16.0040899 C3.27388267,16.2706111 3.45042754,16.5586273 3.64749539,16.8637647 C4.40346631,18.0343003 5.2966676,19.2057118 6.31734345,20.2944327 C9.16619707,23.3332099 12.4119441,25.1239669 15.9762221,25.1241612 C17.9430005,25.0920054 19.8616945,24.5715579 21.5641106,23.6211485 Z M24.8660037,22.8089658 C24.8766489,22.8192892 24.8871634,22.8298023 24.8975424,22.8405045 L31.5739734,29.5169355 C32.1420087,30.0849708 32.1420087,31.0059381 31.5739734,31.5739734 C31.0059381,32.1420087 30.0849708,32.1420087 29.5169355,31.5739734 L23.6855075,25.7425454 C21.3973977,27.1915758 18.7446147,27.9883527 16,28.0330578 C11.4888824,28.0330578 7.54454686,25.8568726 4.19505342,22.2840796 C3.0463078,21.0587509 2.04901323,19.7508236 1.20374449,18.4420204 C0.692700433,17.6507264 0.341494334,17.02636 0.153560574,16.6504925 C-0.057801763,16.2277678 -0.0506028107,15.728705 0.172864605,15.3122527 C1.65425239,12.551549 3.6228934,10.0872489 5.97921008,8.03624792 L0.426026623,2.48306451 C-0.142008707,1.91502918 -0.142008707,0.994061945 0.426026623,0.426026615 C0.994061952,-0.142008714 1.91502919,-0.142008714 2.48306452,0.426026615 L9.15698473,7.09994683 C9.16758058,7.1102239 9.17804706,7.12068901 9.18837942,7.13134151 L14.219483,12.1624451 C14.2228803,12.1658095 14.2262646,12.1691938 14.229636,12.1725981 L19.8274019,17.770364 C19.8308062,17.7737354 19.8341905,17.7771197 19.8375548,17.7805169 L24.8660032,22.8089653 Z M13.4575504,15.5145883 C13.364242,15.9046435 13.3639717,16.3180628 13.4667784,16.7206224 C13.6941122,17.6107926 14.3892074,18.3058878 15.2793776,18.5332216 C15.6819372,18.6360283 16.0953565,18.635758 16.4854117,18.5424496 L13.4575504,15.5145883 Z M28.3525046,15.1362353 C27.5965337,13.9656997 26.7033324,12.7942882 25.6826566,11.7055673 C22.8338029,8.6667901 19.5880559,6.87603313 15.9965819,6.87602911 C15.1745396,6.87409735 14.3550603,6.96775213 13.5546507,7.15510697 C12.7724697,7.33819496 11.9899646,6.85253415 11.8068766,6.07035318 C11.6237886,5.28817222 12.1094494,4.50566713 12.8916304,4.32257914 C13.9116037,4.0838302 14.9558778,3.96448459 16,3.96694224 C20.5111176,3.96694224 24.4554532,6.14312738 27.8049466,9.71592039 C28.9536922,10.9412491 29.9509868,12.2491764 30.7962555,13.5579796 C31.3072996,14.3492736 31.6585057,14.97364 31.8464394,15.3495075 C32.0574333,15.7714953 32.0506477,16.2696069 31.828237,16.6856905 C30.9778389,18.2766061 29.963666,19.7743893 28.8022106,21.1546831 C28.2849952,21.7693509 27.3674226,21.8483517 26.7527548,21.3311363 C26.138087,20.8139209 26.0590862,19.8963483 26.5763016,19.2816805 C27.4395678,18.2557599 28.2111819,17.1567272 28.8825513,15.9972723 C28.7267189,15.7303704 28.5499083,15.4418926 28.3525046,15.1362353 Z" id="Combined-Shape" fill="#F0FAFF" fill-rule="nonzero"></path>
    </g>
</svg>