<?xml version="1.0" encoding="UTF-8"?>
<svg width="32px" height="32px" viewBox="0 0 32 32" version="1.1" xmlns="http://www.w3.org/2000/svg" xmlns:xlink="http://www.w3.org/1999/xlink">
    <!-- Generator: Sketch 53.2 (72643) - https://sketchapp.com -->
    <title>ic/eye</title>
    <desc>Created with Sketch.</desc>
    <g id="ic/eye" stroke="none" stroke-width="1" fill="none" fill-rule="evenodd">
        <path d="M3.64749529,16.8637647 C4.40346622,18.0343003 5.29666751,19.2057118 6.31734337,20.2944327 C9.16619701,23.33321 12.4119441,25.1239669 16,25.1239669 C19.5880559,25.1239669 22.833803,23.33321 25.6826566,20.2944327 C26.7033325,19.2057118 27.5965338,18.0343003 28.3525047,16.8637647 C28.550581,16.5570659 28.7279238,16.2676638 28.8841437,16 C28.7279238,15.7323362 28.550581,15.4429341 28.3525047,15.1362353 C27.5965338,13.9656997 26.7033325,12.7942882 25.6826566,11.7055673 C22.833803,8.66679004 19.5880559,6.87603306 16,6.87603306 C12.4119441,6.87603306 9.16619701,8.66679004 6.31734337,11.7055673 C5.29666751,12.7942882 4.40346622,13.9656997 3.64749529,15.1362353 C3.44941898,15.4429341 3.27207625,15.7323362 3.11585627,16 C3.27207625,16.2676638 3.44941898,16.5570659 3.64749529,16.8637647 Z M0.153560449,15.3495075 C0.341494211,14.97364 0.692700312,14.3492736 1.20374438,13.5579795 C2.04901312,12.2491763 3.04630769,10.941249 4.19505332,9.71592034 C7.54454679,6.14312731 11.4888824,3.96694215 16,3.96694215 C20.5111176,3.96694215 24.4554532,6.14312731 27.8049467,9.71592034 C28.9536923,10.941249 29.9509869,12.2491763 30.7962556,13.5579795 C31.3072997,14.3492736 31.6585058,14.97364 31.8464396,15.3495075 C32.0511868,15.759002 32.0511868,16.240998 31.8464396,16.6504925 C31.6585058,17.02636 31.3072997,17.6507264 30.7962556,18.4420205 C29.9509869,19.7508237 28.9536923,21.058751 27.8049467,22.2840797 C24.4554532,25.8568727 20.5111176,28.0330579 16,28.0330579 C11.4888824,28.0330579 7.54454679,25.8568727 4.19505332,22.2840797 C3.04630769,21.058751 2.04901312,19.7508237 1.20374438,18.4420205 C0.692700312,17.6507264 0.341494211,17.02636 0.153560449,16.6504925 C-0.0511868165,16.240998 -0.0511868165,15.759002 0.153560449,15.3495075 Z M16,21.4214876 C13.0057951,21.4214876 10.5785124,18.9942049 10.5785124,16 C10.5785124,13.0057951 13.0057951,10.5785124 16,10.5785124 C18.9942049,10.5785124 21.4214876,13.0057951 21.4214876,16 C21.4214876,18.9942049 18.9942049,21.4214876 16,21.4214876 Z M16,18.5123967 C17.3875584,18.5123967 18.5123967,17.3875584 18.5123967,16 C18.5123967,14.6124416 17.3875584,13.4876033 16,13.4876033 C14.6124416,13.4876033 13.4876033,14.6124416 13.4876033,16 C13.4876033,17.3875584 14.6124416,18.5123967 16,18.5123967 Z" id="Combined-Shape" fill="#F0FAFF" fill-rule="nonzero"></path>
    </g>
</svg>