<?xml version="1.0" encoding="UTF-8"?>
<svg width="32px" height="32px" viewBox="0 0 32 32" version="1.1" xmlns="http://www.w3.org/2000/svg" xmlns:xlink="http://www.w3.org/1999/xlink">
    <!-- Generator: Sketch 53.2 (72643) - https://sketchapp.com -->
    <title>ic_edit</title>
    <desc>Created with Sketch.</desc>
    <g id="ic_edit" stroke="none" stroke-width="1" fill="none" fill-rule="evenodd">
        <path d="M14.4308815,3.13823707 C15.0474902,3.13823707 15.5473504,3.63809725 15.5473504,4.25470604 C15.5473504,4.87131482 15.0474902,5.371175 14.4308815,5.371175 L4.0752273,5.371175 C3.05775897,5.371175 2.23293793,6.19599605 2.23293793,7.21346437 L2.23293793,27.9247727 C2.23293793,28.942241 3.05775897,29.7670621 4.0752273,29.7670621 L24.7865356,29.7670621 C25.804004,29.7670621 26.628825,28.942241 26.628825,27.9247727 L26.628825,17.5691185 C26.628825,16.9525098 27.1286852,16.4526496 27.745294,16.4526496 C28.3619027,16.4526496 28.8617629,16.9525098 28.8617629,17.5691185 L28.8617629,27.9247727 C28.8617629,30.1754586 27.0372215,32 24.7865356,32 L4.0752273,32 C1.82454141,32 -2.0783375e-13,30.1754586 -2.0783375e-13,27.9247727 L-2.0783375e-13,7.21346437 C-2.0783375e-13,4.96277848 1.82454141,3.13823707 4.0752273,3.13823707 L14.4308815,3.13823707 Z M29.1748999,5.68431203 C29.9644495,4.89476245 29.9644495,3.61464968 29.1748999,2.82510011 C28.3853503,2.03555054 27.1052376,2.03555053 26.315688,2.82510008 L12.4802544,16.6605336 L11.5271838,20.4728162 L15.3394664,19.5197456 L29.1748999,5.68431203 Z M30.7538254,1.24617456 C32.4153915,2.90774062 32.4153915,5.60167146 30.7538255,7.26323756 L16.6997234,21.3173396 C16.5566381,21.460425 16.3773556,21.561933 16.1810441,21.6110109 L10.2635275,23.09039 C9.4458474,23.29481 8.70518996,22.5541526 8.90960997,21.7364725 L10.3889891,15.8189559 C10.438067,15.6226444 10.539575,15.4433619 10.6826604,15.3002766 L24.7367624,1.24617451 C26.3983285,-0.415391526 29.0922594,-0.415391498 30.7538254,1.24617456 Z" id="Combined-Shape" fill="#F0FAFF" fill-rule="nonzero"></path>
    </g>
</svg>