<?xml version="1.0" encoding="UTF-8"?>
<svg width="36px" height="36px" viewBox="0 0 36 36" version="1.1" xmlns="http://www.w3.org/2000/svg" xmlns:xlink="http://www.w3.org/1999/xlink">
    <!-- Generator: Sketch 53.2 (72643) - https://sketchapp.com -->
    <title>ic_logo_icon</title>
    <desc>Created with Sketch.</desc>
    <defs>
        <polygon id="path-1" points="0 0.0909701982 13.2750302 0.0909701982 13.2750302 19.5693004 0 19.5693004"></polygon>
    </defs>
    <g id="ic_logo_icon" stroke="none" stroke-width="1" fill="none" fill-rule="evenodd">
        <g id="logo" transform="translate(1.000000, 3.000000)">
            <g id="Group">
                <path d="M33.5718464,3.00736689 C33.6446829,1.40753784 33.0185244,0.639198892 31.9764932,0.249766821 C30.7218267,-0.21801945 29.612833,0.279003463 28.8081077,1.66715922 C24.1489246,9.69437163 19.4991397,17.7274314 14.869326,25.7721858 C13.9788417,27.3193889 14.2807605,28.7379507 15.5448254,29.4665278 C16.9251936,30.2641034 18.2256766,29.8419263 19.185473,28.1929797 C23.8282092,20.2125459 28.4544985,12.2227564 33.0702148,4.22711959 C33.3533371,3.73828294 33.5048839,3.17460048 33.5718464,3.00736689" id="Fill-1" fill="#FFFFFF"></path>
                <g id="Group-5" transform="translate(-0.000000, 0.000000)">
                    <mask id="mask-2" fill="white">
                        <use xlink:href="#path-1"></use>
                    </mask>
                    <g id="Clip-4"></g>
                    <path d="M13.2397867,17.3372976 C13.2621076,17.1595388 13.2750302,16.9700854 13.2750302,16.76309 C13.2444858,16.6800579 13.2045433,16.5139938 13.1446294,16.318693 C13.1176095,16.2216274 13.0835408,16.1257312 13.044773,16.0310045 C12.9919078,15.8906686 12.9308192,15.7491632 12.8521089,15.6123357 C12.8521089,15.6123357 12.8521089,15.6111663 12.8521089,15.6111663 C10.1888793,10.9777433 7.51507681,6.34899812 4.81190474,1.73779495 C3.88147785,0.150830025 2.39537934,-0.32397304 1.14306233,0.465416292 C-0.14802246,1.27819494 -0.357133555,2.67804535 0.57446812,4.29658585 C2.75721202,8.08565465 4.93643157,11.8782318 7.12857372,15.6614533 C7.71244009,16.6683633 8.2751604,17.6974931 8.96710666,18.6283877 C9.59796429,19.4774198 10.5307407,19.7873282 11.5762962,19.4119297 C11.74429,19.352287 11.8958368,19.2797801 12.0415097,19.2002564 C12.0520827,19.1944091 12.0626557,19.1885618 12.0732288,19.1827145 C12.5102475,18.9371267 12.8438854,18.5933038 13.044773,18.1009587 C13.0518217,18.0857557 13.0623947,18.0728915 13.0682686,18.0576885 C13.0811912,18.0261129 13.082366,17.9957068 13.092939,17.9653007 C13.136406,17.8389984 13.1716494,17.7021709 13.1998442,17.5571572 C13.2139415,17.4834808 13.2315633,17.4098045 13.2397867,17.3372976" id="Fill-3" fill="#FFFFFF" mask="url(#mask-2)"></path>
                </g>
            </g>
        </g>
    </g>
</svg>