<?xml version="1.0" encoding="UTF-8"?>
<svg width="32px" height="32px" viewBox="0 0 32 32" version="1.1" xmlns="http://www.w3.org/2000/svg" xmlns:xlink="http://www.w3.org/1999/xlink">
    <!-- Generator: Sketch 53.2 (72643) - https://sketchapp.com -->
    <title>ic_list</title>
    <desc>Created with Sketch.</desc>
    <g id="ic_list" stroke="none" stroke-width="1" fill="none" fill-rule="evenodd">
        <path d="M9.39035017,7.21381314 C8.76721398,7.21381314 8.26206229,6.70866144 8.26206229,6.08552525 C8.26206229,5.46238906 8.76721398,4.95723737 9.39035017,4.95723737 L30.8717121,4.95723737 C31.4948483,4.95723737 32,5.46238906 32,6.08552525 C32,6.70866144 31.4948483,7.21381314 30.8717121,7.21381314 L9.39035017,7.21381314 Z M9.39035017,17.1282879 C8.76721398,17.1282879 8.26206229,16.6231362 8.26206229,16 C8.26206229,15.3768638 8.76721398,14.8717121 9.39035017,14.8717121 L30.8717121,14.8717121 C31.4948483,14.8717121 32,15.3768638 32,16 C32,16.6231362 31.4948483,17.1282879 30.8717121,17.1282879 L9.39035017,17.1282879 Z M9.39035017,27.0427626 C8.76721398,27.0427626 8.26206229,26.5376109 8.26206229,25.9144747 C8.26206229,25.2913386 8.76721398,24.7861869 9.39035017,24.7861869 L30.8717121,24.7861869 C31.4948483,24.7861869 32,25.2913386 32,25.9144747 C32,26.5376109 31.4948483,27.0427626 30.8717121,27.0427626 L9.39035017,27.0427626 Z M1.12828788,7.21381314 C0.505151691,7.21381314 1.02362563e-13,6.70866144 1.02362563e-13,6.08552525 C1.02362563e-13,5.46238906 0.505151691,4.95723737 1.12828788,4.95723737 L1.14481201,4.95723737 C1.7679482,4.95723737 2.27309989,5.46238906 2.27309989,6.08552525 C2.27309989,6.70866144 1.7679482,7.21381314 1.14481201,7.21381314 L1.12828788,7.21381314 Z M1.12828788,17.1282879 C0.505151691,17.1282879 1.02362563e-13,16.6231362 1.02362563e-13,16 C1.02362563e-13,15.3768638 0.505151691,14.8717121 1.12828788,14.8717121 L1.14481201,14.8717121 C1.7679482,14.8717121 2.27309989,15.3768638 2.27309989,16 C2.27309989,16.6231362 1.7679482,17.1282879 1.14481201,17.1282879 L1.12828788,17.1282879 Z M1.12828788,27.0427626 C0.505151691,27.0427626 1.02362563e-13,26.5376109 1.02362563e-13,25.9144747 C1.02362563e-13,25.2913386 0.505151691,24.7861869 1.12828788,24.7861869 L1.14481201,24.7861869 C1.7679482,24.7861869 2.27309989,25.2913386 2.27309989,25.9144747 C2.27309989,26.5376109 1.7679482,27.0427626 1.14481201,27.0427626 L1.12828788,27.0427626 Z" id="Combined-Shape" fill="#F0FAFF" fill-rule="nonzero"></path>
    </g>
</svg>