<?xml version="1.0" encoding="UTF-8"?>
<svg width="32px" height="32px" viewBox="0 0 32 32" version="1.1" xmlns="http://www.w3.org/2000/svg" xmlns:xlink="http://www.w3.org/1999/xlink">
    <!-- Generator: Sketch 53.2 (72643) - https://sketchapp.com -->
    <title>ic/save</title>
    <desc>Created with Sketch.</desc>
    <g id="ic/save" stroke="none" stroke-width="1" fill="none" fill-rule="evenodd">
        <path d="M6.63427276,2.14577259 L4.39002268,2.14577259 C3.15055758,2.14577259 2.14577259,3.15055758 2.14577259,4.39002268 L2.14577259,27.6099773 C2.14577259,28.8494424 3.15055758,29.8542274 4.39002268,29.8542274 L6.63427276,29.8542274 L6.63427276,17.6585682 C6.63427276,17.0660294 7.11462031,16.5856819 7.70715905,16.5856819 L24.2928409,16.5856819 C24.8853797,16.5856819 25.3657272,17.0660294 25.3657272,17.6585682 L25.3657272,29.8542274 L27.6099773,29.8542274 C28.8494424,29.8542274 29.8542274,28.8494424 29.8542274,27.6099773 L29.8542274,9.8101313 L22.1898687,2.14577259 L8.78004535,2.14577259 L8.78004535,8.29284095 L20.9757046,8.29284095 C21.5682433,8.29284095 22.0485909,8.7731885 22.0485909,9.36572724 C22.0485909,9.95826598 21.5682433,10.4386135 20.9757046,10.4386135 L7.70715905,10.4386135 C7.11462031,10.4386135 6.63427276,9.95826598 6.63427276,9.36572724 L6.63427276,2.14577259 Z M8.78004535,29.8542274 L23.2199546,29.8542274 L23.2199546,18.7314545 L8.78004535,18.7314545 L8.78004535,29.8542274 Z M27.6099773,32 L4.39002268,32 C1.9654801,32 9.23705556e-14,30.0345199 9.23705556e-14,27.6099773 L9.23705556e-14,4.39002268 C9.23705556e-14,1.9654801 1.9654801,0 4.39002268,0 L22.6342728,0 C22.9188199,0 23.1917127,0.11303591 23.3929179,0.314241121 L31.6857589,8.60708207 C31.8869641,8.80828728 32,9.08118011 32,9.36572724 L32,27.6099773 C32,30.0345199 30.0345199,32 27.6099773,32 Z" id="Combined-Shape" fill="#F0FAFF" fill-rule="nonzero"></path>
    </g>
</svg>