<?xml version="1.0" encoding="UTF-8"?>
<svg width="150px" height="150px" viewBox="0 0 150 150" version="1.1" xmlns="http://www.w3.org/2000/svg" xmlns:xlink="http://www.w3.org/1999/xlink">
    <!-- Generator: Sketch 53.2 (72643) - https://sketchapp.com -->
    <title>ic_success</title>
    <desc>Created with Sketch.</desc>
    <g id="ic_success" stroke="none" stroke-width="1" fill="none" fill-rule="evenodd">
        <path d="M75,150 C33.5786438,150 0,116.421356 0,75 C0,33.5786438 33.5786438,0 75,0 C116.421356,0 150,33.5786438 150,75 C150,116.421356 116.421356,150 75,150 Z M75,145.16129 C113.749011,145.16129 145.16129,113.749011 145.16129,75 C145.16129,36.2509893 113.749011,4.83870968 75,4.83870968 C36.2509893,4.83870968 4.83870968,36.2509893 4.83870968,75 C4.83870968,113.749011 36.2509893,145.16129 75,145.16129 Z M69.6344804,95.4388587 L102.083102,51.3087328 C102.874638,50.2322438 104.388972,50.0012438 105.465461,50.7927798 C106.54195,51.5843158 106.77295,53.0986492 105.981414,54.1751382 L71.825816,100.626751 C70.9350833,101.838148 69.1667511,101.952206 68.1277748,100.865277 L44.2188564,75.8528703 C43.2955861,74.8869874 43.3301303,73.3555262 44.2960131,72.4322559 C45.2618959,71.5089856 46.7933571,71.5435298 47.7166275,72.5094126 L69.6344804,95.4388587 Z" id="Combined-Shape" fill="#F0FAFF" fill-rule="nonzero"></path>
    </g>
</svg>