<?xml version="1.0" encoding="UTF-8"?>
<svg width="36px" height="36px" viewBox="0 0 36 36" version="1.1" xmlns="http://www.w3.org/2000/svg" xmlns:xlink="http://www.w3.org/1999/xlink">
    <!-- Generator: Sketch 53.2 (72643) - https://sketchapp.com -->
    <title>ic_user</title>
    <desc>Created with Sketch.</desc>
    <g id="ic_user" stroke="none" stroke-width="1" fill="none" fill-rule="evenodd">
        <g id="Group" fill="#9CC6B9">
            <path d="M8.44890852,31.8885655 L8.44890852,28.7105219 C8.44890852,26.0966998 10.5869932,23.9777783 13.2244543,23.9777783 L22.7755457,23.9777783 C25.4130068,23.9777783 27.5510915,26.0966998 27.5510915,28.7105219 L27.5510915,31.8885655 C24.8894758,33.8664739 21.5828137,35.0382223 18,35.0382223 C14.4171863,35.0382223 11.1105242,33.8664739 8.44890852,31.8885655 Z M18,19.1688896 C15.3625389,19.1688896 13.2244543,17.0158769 13.2244543,14.360001 C13.2244543,11.7041251 15.3625389,9.55111231 18,9.55111231 C20.6374611,9.55111231 22.7755457,11.7041251 22.7755457,14.360001 C22.7755457,17.0158769 20.6374611,19.1688896 18,19.1688896 Z" id="Combined-Shape" stroke="#9CC6B9" stroke-width="2" stroke-linecap="round" stroke-linejoin="round"></path>
            <path d="M18,36 C8.0588745,36 3.55271368e-15,27.9411255 3.55271368e-15,18 C3.55271368e-15,8.0588745 8.0588745,2.48689958e-14 18,2.48689958e-14 C27.9411255,2.48689958e-14 36,8.0588745 36,18 C36,27.9411255 27.9411255,36 18,36 Z M18,34.0764445 C26.8787751,34.0764445 34.0764445,26.8787751 34.0764445,18 C34.0764445,9.12122485 26.8787751,1.92355547 18,1.92355547 C9.12122485,1.92355547 1.92355547,9.12122485 1.92355547,18 C1.92355547,26.8787751 9.12122485,34.0764445 18,34.0764445 Z" id="Oval" fill-rule="nonzero"></path>
        </g>
    </g>
</svg>