<?xml version="1.0" encoding="UTF-8"?>
<svg width="32px" height="32px" viewBox="0 0 32 32" version="1.1" xmlns="http://www.w3.org/2000/svg" xmlns:xlink="http://www.w3.org/1999/xlink">
    <!-- Generator: Sketch 53.2 (72643) - https://sketchapp.com -->
    <title>ic_upload</title>
    <desc>Created with Sketch.</desc>
    <g id="ic_upload" stroke="none" stroke-width="1" fill="none" fill-rule="evenodd">
        <path d="M17.1236726,18.6978788 L17.1236726,28.1730931 C17.1236726,28.7906125 16.6230743,29.2912108 16.005555,29.2912108 C15.3880356,29.2912108 14.8874373,28.7906125 14.8874373,28.1730931 L14.8874373,18.6978788 L11.385255,22.2000611 C10.9486029,22.6367132 10.24065,22.6367132 9.80399786,22.2000611 C9.36734575,21.763409 9.36734575,21.055456 9.80399786,20.6188039 L15.2149264,15.2078754 C15.6515785,14.7712233 16.3595314,14.7712233 16.7961835,15.2078754 L22.2071121,20.6188039 C22.6437642,21.055456 22.6437642,21.763409 22.2071121,22.2000611 C21.77046,22.6367132 21.062507,22.6367132 20.6258549,22.2000611 L17.1236726,18.6978788 Z M23.2504024,10.82219 L24.122686,10.8221902 C27.7249404,10.8245685 30.8671884,13.2688828 31.7557266,16.7598342 C32.6442648,20.2507857 31.0529568,23.8999135 27.890176,25.6241698 C27.3479939,25.9197518 26.6688519,25.7198428 26.37327,25.1776607 C26.0776881,24.6354786 26.277597,23.9563367 26.8197791,23.6607547 C29.0852089,22.4257082 30.2250275,19.8119189 29.5885873,17.3114278 C28.952147,14.8109366 26.7014245,13.0601285 24.1219477,13.0584252 L22.4175053,13.0584252 C21.9077776,13.0584252 21.4625698,12.7136817 21.3349813,12.2201805 C20.3295297,8.33118227 17.0318959,5.46367994 13.0409569,5.00799868 C9.05001777,4.55231741 5.19086895,6.60266577 3.3346411,10.1649204 C1.47841324,13.7271751 2.00886702,18.0648677 4.66880884,21.0748427 C5.07772566,21.5375707 5.03410312,22.2441784 4.57137517,22.6530952 C4.10864723,23.062012 3.40203953,23.0183895 2.99312271,22.5556615 C-0.27980505,18.8520351 -0.932502371,13.5147174 1.35149483,9.13153803 C3.63549203,4.74835862 8.3839851,2.22550568 13.2946396,2.78619909 C17.9138908,3.31362038 21.7783049,6.46691491 23.2504024,10.82219 Z" id="Combined-Shape" fill="#F0FAFF" fill-rule="nonzero"></path>
    </g>
</svg>